<svg xmlns="http://www.w3.org/2000/svg" viewBox="0 0 100 100" width="100" height="100"><path fill="#2088ff" d="M20.833 0C9.352 0 0 9.352 0 20.833c0 10.055 7.173 18.477 16.667 20.414v29.586c0 9.195 7.563 16.667 16.666 16.667h0.152c1.017 7.049 7.109 12.5 14.432 12.5C55.947 100 62.5 93.447 62.5 85.417s-6.553 -14.584 -14.583 -14.584c-7.322 0 -13.414 5.451 -14.432 12.5h-0.152c-6.826 0 -12.5 -5.588 -12.5 -12.5V49.827a14.461 14.461 0 0 0 10.344 4.34h2.309c1.018 7.049 7.109 12.5 14.432 12.5s13.413 -5.451 14.43 -12.5h8.638c1.018 7.049 7.109 12.5 14.432 12.5 8.03 0 14.583 -6.555 14.583 -14.584S93.447 37.5 85.417 37.5c-7.323 0 -13.415 5.451 -14.432 12.5H62.348c-1.016 -7.049 -7.108 -12.5 -14.43 -12.5s-13.415 5.451 -14.432 12.5h-2.309c-5.026 0 -9.213 -3.585 -10.147 -8.338 11.391 -0.106 20.637 -9.414 20.637 -20.83C41.667 9.352 32.314 0 20.833 0m0 4.167A16.633 16.633 0 0 1 37.5 20.833 16.636 16.636 0 0 1 20.833 37.5 16.633 16.633 0 0 1 4.167 20.833 16.633 16.633 0 0 1 20.833 4.167m-4.074 5.891C14.586 10.07 12.5 11.815 12.5 14.192v13.315c0 3.159 3.679 5.205 6.363 3.541l10.652 -6.605c2.545 -1.578 2.558 -5.47 0.025 -7.066l-10.652 -6.711a3.922 3.922 0 0 0 -2.129 -0.607m-0.091 4.134 10.652 6.709 -10.652 6.605zm31.25 27.475a10.383 10.383 0 0 1 10.416 10.416A10.385 10.385 0 0 1 47.917 62.5 10.386 10.386 0 0 1 37.5 52.083a10.385 10.385 0 0 1 10.417 -10.416m37.5 0a10.383 10.383 0 0 1 10.416 10.416A10.385 10.385 0 0 1 85.417 62.5 10.386 10.386 0 0 1 75 52.083a10.385 10.385 0 0 1 10.417 -10.416m-33.256 5.43a2.086 2.086 0 0 0 -1.474 0.609l-4.922 4.917 -1.635 -1.628a2.084 2.084 0 0 0 -2.946 0.005 2.084 2.084 0 0 0 0.006 2.947l3.105 3.094a2.084 2.084 0 0 0 2.942 -0.001l6.395 -6.386a2.084 2.084 0 0 0 0.002 -2.947 2.086 2.086 0 0 0 -1.472 -0.609zm37.5 0a2.086 2.086 0 0 0 -1.474 0.609l-4.922 4.917 -1.635 -1.628a2.084 2.084 0 0 0 -2.946 0.005 2.084 2.084 0 0 0 0.006 2.947l3.105 3.094a2.084 2.084 0 0 0 2.942 -0.001l6.395 -6.386a2.084 2.084 0 0 0 0.002 -2.947 2.086 2.086 0 0 0 -1.472 -0.609zM47.917 75a10.385 10.385 0 0 1 10.416 10.417 10.383 10.383 0 0 1 -10.416 10.416A10.385 10.385 0 0 1 37.5 85.417 10.386 10.386 0 0 1 47.917 75M43.75 82.292c-1.713 0 -3.125 1.412 -3.125 3.125 0 1.715 1.413 3.125 3.125 3.125s3.125 -1.41 3.125 -3.125c0 -1.713 -1.412 -3.125 -3.125 -3.125m8.333 0c-1.713 0 -3.125 1.412 -3.125 3.125 0 1.715 1.413 3.125 3.125 3.125s3.125 -1.41 3.125 -3.125c0 -1.713 -1.412 -3.125 -3.125 -3.125M43.75 84.375c0.586 0 1.042 0.457 1.042 1.042 0 0.588 -0.455 1.041 -1.042 1.041 -0.586 0 -1.042 -0.453 -1.042 -1.041 0 -0.586 0.457 -1.042 1.042 -1.042m8.333 0c0.586 0 1.042 0.457 1.042 1.042 0 0.588 -0.455 1.041 -1.042 1.041 -0.586 0 -1.041 -0.453 -1.041 -1.041 0 -0.586 0.455 -1.042 1.041 -1.042"/><path fill="#79b8ff" d="M85.417 70.833c-7.33 0 -13.428 5.463 -14.435 12.524a2.344 2.344 0 0 0 -0.207 -0.009l-2.109 0.07a2.084 2.084 0 0 0 -2.014 2.149 2.084 2.084 0 0 0 2.15 2.014l2.109 -0.068 0.076 -0.005C72.008 94.554 78.098 100 85.417 100c8.03 0 14.583 -6.553 14.583 -14.583s-6.553 -14.584 -14.583 -14.584m0 4.167a10.385 10.385 0 0 1 10.416 10.417 10.383 10.383 0 0 1 -10.416 10.416A10.385 10.385 0 0 1 75 85.417 10.386 10.386 0 0 1 85.417 75"/></svg>