<svg xmlns="http://www.w3.org/2000/svg" width="100" height="100" viewBox="0 0 85.714 85.714" fill="none" class="css-pgi4ag"><path fill-rule="evenodd" clip-rule="evenodd" fill="#0073E6" d="M85.714 20.004V5.686a1.229 1.229 0 0 0 -1.836 -1.064l-9.429 5.386a2.464 2.464 0 0 0 -1.236 2.132v14.318c0 0.943 1.018 1.536 1.836 1.064l9.429 -5.386A2.464 2.464 0 0 0 85.714 20ZM1.839 4.625l27.296 15.654a2.464 2.464 0 0 0 2.443 0l27.296 -15.654a1.229 1.229 0 0 1 1.839 1.064v42.964c0 0.839 -0.429 1.618 -1.139 2.071l-16.607 10.546 11.107 6.543c0.786 0.464 1.768 0.454 2.546 -0.032l16.464 -10.279a1.214 1.214 0 0 0 0.575 -1.043v-14.589a2.464 2.464 0 0 1 1.293 -2.164l8.954 -4.807a1.229 1.229 0 0 1 1.807 1.082v26.896c0 0.871 -0.464 1.679 -1.214 2.118l-27.979 16.4a2.464 2.464 0 0 1 -2.536 -0.032l-21.261 -13.146A1.214 1.214 0 0 1 32.143 67.171v-12.943c0 -0.411 0.204 -0.793 0.546 -1.021l14.429 -9.621a2.464 2.464 0 0 0 1.096 -2.043v-15.679a0.489 0.489 0 0 0 -0.743 -0.418l-15.857 9.514a2.464 2.464 0 0 1 -2.518 0.007L13.018 25.439a0.493 0.493 0 0 0 -0.743 0.421v28.332a1.229 1.229 0 0 1 -1.857 1.054L1.786 50.068c-1.107 -0.664 -1.786 -1.864 -1.786 -3.157V5.689c0 -0.943 1.021 -1.536 1.839 -1.064"/></svg>